<?xml version="1.0" encoding="utf-8"?>
<!-- Svg Vector Icons : http://www.onlinewebfonts.com/icon -->
<!DOCTYPE svg PUBLIC "-//W3C//DTD SVG 1.1//EN" "http://www.w3.org/Graphics/SVG/1.1/DTD/svg11.dtd">
<svg version="1.1" xmlns="http://www.w3.org/2000/svg" xmlns:xlink="http://www.w3.org/1999/xlink" x="0px" y="0px" viewBox="0 0 1000 1000" enable-background="new 0 0 1000 1000" xml:space="preserve">
<metadata> Svg Vector Icons : http://www.onlinewebfonts.com/icon </metadata>
<g><g fill="#FFFFFF" transform="translate(0.000000,511.000000) scale(0.100000,-0.100000)">
  <path d="M4763.7,4591.4v-499.2l108.9,12.3c57.5,8.2,164.4,10.3,236.3,4.1l127.4-10.3v497.2v495.1h-236.3h-236.3V4591.4z"/><path d="M4825.3,3855.9c-147.9-28.8-343.1-137.6-462.3-254.8c-525.9-525.9-236.3-1419.6,501.3-1553.2c606.1-106.8,1158.7,443.8,1054,1051.9C5830,3617.6,5338.9,3956.6,4825.3,3855.9z M5174.6,3184.1c78.1-57.5,127.4-164.4,115-258.9c-34.9-297.9-429.4-343.1-538.3-63.7c-32.9,88.3-32.9,96.6,0,184.9c34.9,90.4,106.8,158.2,187,180.8C5006.1,3245.8,5119.1,3225.2,5174.6,3184.1z"/><path d="M2236.7,1495.3L562.3,488.6h347.2h349.3l1160.8,682.1c639,373.9,1284.1,754,1434,842.3l271.2,160.2l-90.4,137.7c-51.4,76-92.5,150-92.5,164.4c0,14.4-6.2,26.7-14.4,26.7C3917.2,2500,3157.1,2048,2236.7,1495.3z"/><path d="M6058,2421.9c-14.4-34.9-55.5-106.8-94.5-160.3c-37-53.4-61.6-104.8-53.4-113c8.2-6.2,657.4-384.2,1442.2-836.2l1427.9-823.9h347.2c191.1,0,343.1,4.1,339,8.2c-24.7,22.6-3320.1,1970.2-3348.8,1978.5C6095,2481.5,6076.5,2463,6058,2421.9z"/><path d="M151.4,231.8L100,182.5v-2465.4v-2465.4l49.3-57.5l49.3-57.5l4764.4-6.2c3552.2-4.1,4776.7,2.1,4819.8,18.5c125.3,51.4,117.1-117.1,117.1,2568.1V174.3l-53.4,55.5l-55.5,53.4H4995.8H200.7L151.4,231.8z M1312.1-415.3v-82.2h-102.7h-102.7l-4.1-1894.2l-6.2-1896.3H1004h-92.5l-6.2,1978.5l-4.1,1976.4h205.4h205.4V-415.3z M2421.6-415.3v-82.2h-113h-113v-1900.4v-1900.4h-92.5h-92.5v1982.6v1982.6h205.4h205.4V-415.3z M3531-415.3v-82.2h-102.7h-102.7l-4.1-1894.2l-6.2-1896.3h-92.5h-92.5l-6.2,1978.5l-4.1,1976.4h205.4H3531V-415.3z M4640.4-415.3v-82.2h-102.7H4435v-1900.4v-1900.4h-92.5h-92.5v1982.6v1982.6h195.2h195.2V-415.3z M5770.4-415.3v-82.2h-102.7h-102.7l-4.1-1894.2l-6.2-1896.3l-86.3-6.2l-88.3-6.2v1982.6v1984.6h195.2h195.2V-415.3z M6900.3-413.3v-82.2l-106.8-6.2l-108.9-6.2l-6.2-1896.3l-4.1-1896.3l-88.3,6.2l-86.3,6.2l-6.2,1978.5l-4.1,1976.4h205.4h205.4V-413.3z M8009.8-415.3v-82.2h-113h-113l-4.1-1894.2l-6.2-1896.3l-86.3-6.2l-88.3-6.2v1982.6v1984.6h205.4h205.4V-415.3z M9119.2-415.3v-82.2h-102.7h-102.7l-4.1-1894.2l-6.2-1896.3H8811h-92.5l-6.2,1978.5l-4.1,1976.4h205.4h205.4V-415.3z"/></g></g>
</svg>
